<?xml version="1.0" encoding="utf-8"?>
<!-- Generator: Adobe Illustrator 12.0.0, SVG Export Plug-In . SVG Version: 6.00 Build 51448)  -->
<!DOCTYPE svg PUBLIC "-//W3C//DTD SVG 1.1//EN" "http://www.w3.org/Graphics/SVG/1.1/DTD/svg11.dtd" [
	<!ENTITY ns_svg "http://www.w3.org/2000/svg">
	<!ENTITY ns_xlink "http://www.w3.org/1999/xlink">
]>
<svg  version="1.1" id="Ebene_1" xmlns="&ns_svg;" xmlns:xlink="&ns_xlink;" width="386" height="66"
	 viewBox="-0.521 -0.799 386 66" overflow="visible" enable-background="new -0.521 -0.799 386 66" xml:space="preserve">
<path fill="none" stroke="#305096" stroke-width="2" d="M72.623,12.003c-0.535-1.011-1.516-1.807-2.66-1.807H11.026
	c-1.146,0,0.867,1.021,0.332,2.033c-0.535,1.011,1.408,2.133,2.052,3.077l1.531,4.885l41.492-0.097L34.331,52.828l-1.799,2.645
	c-0.431,0.631-0.646,1.344-0.646,2.057c0,0.715,0.215,1.427,0.646,2.062l1.522,2.231c0.349,0.515,0.793,0.912,1.309,1.188
	c0.515,0.27,1.094,0.416,1.712,0.416V63.42c0.355,0,0.698-0.047,1.021-0.139l0.011-0.004h0.003c0.242-0.064,0.474-0.159,0.694-0.273
	c0.516-0.271,0.959-0.672,1.308-1.186l1.742-2.559L72.45,15.103C73.094,14.158,73.157,13.013,72.623,12.003z"/>
<path fill="#305096" d="M64.617,1.602C64.083,0.591,63.102,0,61.958,0H3.021C1.876,0,0.896,0.591,0.36,1.602
	c-0.535,1.011-0.472,2.156,0.172,3.1L23.801,38.76l9.696,14.719l6.411-9.49L16.55,9.898l44.518-0.013l3.38-5.184
	C65.088,3.757,65.152,2.613,64.617,1.602z"/>
<path fill="#305096" d="M96.943,14.657h-9.519v5.317h8.182v2.228h-8.182v9.07h-2.51V12.428H96.94L96.943,14.657L96.943,14.657z"/>
<path fill="#305096" d="M113.405,31.272h-2.672l-1.84-5.238h-8.181l-1.841,5.238H96.33l6.863-18.843h3.345L113.405,31.272z
	 M108.105,23.874l-3.306-9.247l-3.312,9.247H108.105z"/>
<path fill="#305096" d="M130.81,29.899c-0.464,0.202-0.887,0.395-1.262,0.569c-0.376,0.179-0.864,0.364-1.475,0.558
	c-0.517,0.16-1.074,0.299-1.678,0.412c-0.604,0.114-1.27,0.17-1.993,0.17c-1.367,0-2.609-0.191-3.729-0.574
	c-1.115-0.385-2.09-0.985-2.917-1.803c-0.812-0.803-1.44-1.817-1.896-3.056c-0.456-1.235-0.686-2.67-0.686-4.306
	c0-1.553,0.222-2.938,0.659-4.162c0.438-1.223,1.069-2.255,1.897-3.1c0.803-0.816,1.77-1.44,2.902-1.872
	c1.136-0.432,2.395-0.645,3.777-0.645c1.012,0,2.021,0.123,3.03,0.367c1.009,0.245,2.129,0.674,3.36,1.29v2.972h-0.189
	c-1.038-0.87-2.067-1.504-3.089-1.901c-1.021-0.396-2.112-0.595-3.277-0.595c-0.953,0-1.812,0.154-2.575,0.462
	c-0.764,0.309-1.442,0.786-2.044,1.437c-0.583,0.633-1.037,1.433-1.358,2.396c-0.325,0.968-0.486,2.082-0.486,3.349
	c0,1.324,0.18,2.465,0.537,3.416c0.356,0.955,0.82,1.731,1.386,2.33c0.591,0.623,1.279,1.086,2.069,1.386
	c0.789,0.301,1.622,0.45,2.5,0.45c1.207,0,2.337-0.207,3.393-0.621c1.058-0.414,2.042-1.035,2.962-1.862h0.18L130.81,29.899
	L130.81,29.899z"/>
<path fill="#305096" d="M148.755,31.272h-2.51v-9.22h-9.38v9.22h-2.511V12.428h2.511v7.396h9.38v-7.396h2.51V31.272z"/>
<path fill="#305096" d="M167.513,25.89c0,0.734-0.173,1.458-0.516,2.177c-0.341,0.715-0.817,1.322-1.437,1.82
	c-0.676,0.54-1.46,0.962-2.357,1.266c-0.896,0.305-1.979,0.455-3.246,0.455c-1.354,0-2.578-0.125-3.661-0.379
	c-1.084-0.254-2.188-0.63-3.31-1.128v-3.137h0.178c0.953,0.794,2.056,1.406,3.301,1.837c1.249,0.432,2.425,0.646,3.521,0.646
	c1.553,0,2.761-0.291,3.625-0.873c0.864-0.584,1.296-1.359,1.296-2.33c0-0.836-0.204-1.451-0.613-1.848s-1.029-0.703-1.867-0.924
	c-0.633-0.168-1.315-0.307-2.058-0.416c-0.738-0.109-1.521-0.25-2.348-0.418c-1.672-0.354-2.91-0.959-3.716-1.816
	c-0.808-0.854-1.208-1.969-1.208-3.344c0-1.576,0.666-2.869,1.999-3.877c1.331-1.008,3.023-1.512,5.074-1.512
	c1.324,0,2.54,0.126,3.646,0.379c1.104,0.253,2.085,0.566,2.938,0.938v2.962h-0.177c-0.719-0.609-1.661-1.114-2.829-1.516
	c-1.17-0.404-2.366-0.604-3.589-0.604c-1.344,0-2.422,0.279-3.236,0.837c-0.812,0.557-1.222,1.273-1.222,2.152
	c0,0.783,0.202,1.398,0.606,1.847c0.401,0.449,1.117,0.789,2.14,1.024c0.54,0.119,1.309,0.262,2.305,0.43
	c0.996,0.169,1.84,0.343,2.532,0.52c1.4,0.371,2.455,0.934,3.164,1.684C167.159,23.491,167.513,24.541,167.513,25.89z"/>
<path fill="#305096" d="M186.092,29.899c-0.463,0.202-0.883,0.395-1.258,0.569c-0.376,0.179-0.867,0.364-1.475,0.558
	c-0.52,0.16-1.074,0.299-1.677,0.412c-0.604,0.114-1.271,0.17-1.993,0.17c-1.368,0-2.609-0.191-3.729-0.574
	c-1.118-0.385-2.09-0.985-2.917-1.803c-0.812-0.803-1.439-1.817-1.896-3.056c-0.455-1.235-0.686-2.67-0.686-4.306
	c0-1.553,0.222-2.938,0.659-4.162c0.438-1.223,1.07-2.255,1.896-3.1c0.802-0.816,1.771-1.44,2.902-1.872
	c1.138-0.43,2.396-0.645,3.778-0.645c1.012,0,2.021,0.123,3.03,0.367c1.009,0.245,2.128,0.674,3.358,1.29v2.972h-0.188
	c-1.038-0.87-2.066-1.504-3.088-1.901c-1.021-0.396-2.112-0.595-3.277-0.595c-0.953,0-1.812,0.154-2.575,0.462
	c-0.766,0.309-1.442,0.786-2.044,1.437c-0.583,0.633-1.037,1.433-1.358,2.396c-0.326,0.968-0.487,2.082-0.487,3.349
	c0,1.324,0.18,2.465,0.538,3.416c0.356,0.955,0.816,1.731,1.386,2.33c0.591,0.623,1.279,1.086,2.069,1.386
	c0.789,0.301,1.622,0.45,2.5,0.45c1.207,0,2.337-0.207,3.393-0.621c1.055-0.414,2.042-1.035,2.962-1.862h0.177L186.092,29.899
	L186.092,29.899z"/>
<path fill="#305096" d="M204.037,31.272h-2.511v-9.22h-9.379v9.22h-2.514V12.428h2.514v7.396h9.379v-7.396h2.511V31.272z"/>
<path fill="#305096" d="M223.281,23.703c0,1.366-0.148,2.558-0.449,3.573c-0.301,1.018-0.791,1.863-1.475,2.539
	c-0.649,0.641-1.408,1.108-2.275,1.403c-0.869,0.296-1.88,0.442-3.035,0.442c-1.182,0-2.21-0.155-3.087-0.467
	c-0.876-0.312-1.611-0.772-2.212-1.381c-0.684-0.691-1.175-1.526-1.475-2.506c-0.3-0.977-0.45-2.18-0.45-3.604V12.428h2.511v11.395
	c0,1.021,0.068,1.826,0.208,2.416c0.141,0.592,0.373,1.127,0.701,1.605c0.369,0.548,0.872,0.961,1.509,1.24
	c0.639,0.277,1.399,0.416,2.293,0.416c0.9,0,1.667-0.137,2.298-0.41c0.634-0.273,1.139-0.689,1.519-1.246
	c0.328-0.48,0.562-1.029,0.701-1.65c0.138-0.619,0.208-1.389,0.208-2.308V12.428h2.51L223.281,23.703L223.281,23.703L223.281,23.703
	z"/>
<path fill="#305096" d="M239.994,31.272h-11.917V12.428h2.51v16.613h9.407V31.272L239.994,31.272z"/>
<path fill="#305096" d="M254.904,31.272h-12.402V12.428h12.402v2.227h-9.892v5.17h9.892v2.229h-9.892v6.991h9.892V31.272
	L254.904,31.272z"/>
<path fill="#305096" d="M280.023,14.657h-9.519v5.317h8.182v2.228h-8.182v9.07h-2.51V12.428h12.025L280.023,14.657L280.023,14.657z"
	/>
<path fill="#305096" d="M297.062,23.703c0,1.366-0.149,2.558-0.449,3.573c-0.3,1.018-0.791,1.863-1.474,2.539
	c-0.648,0.641-1.408,1.108-2.276,1.403c-0.867,0.296-1.879,0.442-3.034,0.442c-1.181,0-2.209-0.155-3.087-0.467
	c-0.877-0.312-1.613-0.772-2.213-1.381c-0.683-0.691-1.173-1.526-1.474-2.506c-0.302-0.977-0.449-2.18-0.449-3.604V12.428h2.51
	v11.395c0,1.021,0.069,1.826,0.208,2.416c0.14,0.592,0.373,1.127,0.702,1.605c0.37,0.548,0.874,0.961,1.51,1.24
	c0.634,0.277,1.398,0.416,2.292,0.416c0.9,0,1.668-0.137,2.298-0.41c0.632-0.273,1.14-0.689,1.52-1.246
	c0.328-0.48,0.562-1.029,0.7-1.65c0.14-0.619,0.208-1.389,0.208-2.308V12.428h2.511L297.062,23.703L297.062,23.703z M288.478,10.04
	h-2.513V7.57h2.513V10.04z M293.702,10.04h-2.512V7.57h2.512V10.04z"/>
<path fill="#305096" d="M317.446,31.272h-3.251l-6.311-7.492h-3.521v7.492h-2.509V12.428h5.272c1.139,0,2.088,0.073,2.847,0.222
	c0.763,0.147,1.443,0.412,2.053,0.791c0.684,0.43,1.217,0.973,1.602,1.625c0.384,0.654,0.575,1.482,0.575,2.486
	c0,1.358-0.343,2.496-1.024,3.411c-0.685,0.914-1.623,1.604-2.817,2.067L317.446,31.272z M311.6,17.735
	c0-0.539-0.095-1.019-0.282-1.436c-0.189-0.416-0.504-0.77-0.945-1.055c-0.362-0.244-0.794-0.414-1.292-0.512
	c-0.498-0.099-1.084-0.146-1.76-0.146h-2.952v7.099h2.534c0.793,0,1.483-0.068,2.078-0.208c0.59-0.139,1.093-0.397,1.507-0.775
	c0.38-0.354,0.661-0.761,0.843-1.22C311.51,19.026,311.6,18.44,311.6,17.735z"/>
<path fill="#305096" d="M99.441,54.096c0,0.733-0.171,1.457-0.517,2.176c-0.342,0.715-0.816,1.322-1.435,1.82
	c-0.675,0.54-1.462,0.963-2.36,1.266c-0.896,0.308-1.979,0.455-3.241,0.455c-1.357,0-2.579-0.125-3.663-0.379
	c-1.082-0.254-2.188-0.629-3.311-1.127v-3.138h0.177c0.954,0.794,2.058,1.405,3.306,1.837c1.249,0.432,2.421,0.646,3.518,0.646
	c1.551,0,2.759-0.291,3.624-0.873c0.864-0.584,1.296-1.359,1.296-2.33c0-0.836-0.204-1.451-0.611-1.848
	c-0.408-0.397-1.03-0.703-1.866-0.924c-0.633-0.168-1.317-0.31-2.061-0.416c-0.735-0.109-1.521-0.25-2.348-0.418
	c-1.671-0.355-2.91-0.959-3.715-1.816c-0.811-0.854-1.208-1.969-1.208-3.344c0-1.576,0.667-2.869,2-3.877
	c1.333-1.011,3.021-1.515,5.075-1.515c1.322,0,2.54,0.126,3.646,0.379c1.104,0.255,2.083,0.563,2.938,0.938v2.963h-0.18
	c-0.718-0.608-1.658-1.113-2.83-1.516c-1.169-0.404-2.361-0.604-3.588-0.604c-1.343,0-2.422,0.276-3.231,0.837
	c-0.815,0.559-1.227,1.271-1.227,2.15c0,0.783,0.202,1.398,0.607,1.849c0.404,0.444,1.119,0.789,2.139,1.022
	c0.54,0.119,1.312,0.262,2.307,0.432c0.995,0.169,1.841,0.343,2.529,0.521c1.401,0.371,2.457,0.934,3.164,1.684
	C99.086,51.695,99.441,52.746,99.441,54.096z"/>
<path fill="#305096" d="M115.873,59.476H103.47V40.633h12.4v2.227h-9.893v5.17h9.893v2.23h-9.893v6.99h9.893L115.873,59.476
	L115.873,59.476z"/>
<path fill="#305096" d="M131.773,59.476h-11.918V40.633h2.51v16.613h9.408V59.476z"/>
<path fill="#305096" d="M148.492,53.683c0,0.937-0.177,1.762-0.531,2.479c-0.354,0.717-0.832,1.309-1.431,1.771
	c-0.709,0.559-1.486,0.953-2.335,1.188c-0.848,0.234-1.925,0.354-3.232,0.354h-6.682V40.633h5.582c1.375,0,2.403,0.051,3.088,0.152
	c0.684,0.102,1.337,0.312,1.961,0.633c0.692,0.363,1.194,0.83,1.507,1.398c0.313,0.568,0.471,1.252,0.471,2.045
	c0,0.896-0.229,1.656-0.686,2.285c-0.456,0.631-1.062,1.135-1.822,1.516v0.102c1.274,0.262,2.278,0.82,3.014,1.676
	C148.126,51.296,148.492,52.376,148.492,53.683z M144.281,45.187c0-0.455-0.077-0.842-0.229-1.152
	c-0.147-0.312-0.396-0.564-0.729-0.762c-0.396-0.229-0.878-0.371-1.443-0.424c-0.562-0.058-1.265-0.084-2.101-0.084h-2.986v5.453
	h3.239c0.783,0,1.408-0.039,1.873-0.119c0.464-0.082,0.894-0.248,1.29-0.502c0.396-0.254,0.677-0.58,0.843-0.982
	C144.198,46.213,144.281,45.738,144.281,45.187z M145.887,53.791c0-0.762-0.113-1.361-0.345-1.811
	c-0.229-0.445-0.642-0.826-1.238-1.141c-0.403-0.21-0.896-0.347-1.477-0.408c-0.577-0.062-1.279-0.097-2.104-0.097h-3.938v7.004
	h3.315c1.097,0,1.993-0.056,2.689-0.17c0.7-0.112,1.275-0.321,1.725-0.626c0.473-0.326,0.814-0.705,1.037-1.126
	C145.778,54.999,145.887,54.455,145.887,53.791z"/>
<path fill="#305096" d="M165.731,54.096c0,0.733-0.172,1.457-0.518,2.176c-0.341,0.715-0.815,1.322-1.436,1.82
	c-0.675,0.54-1.461,0.963-2.358,1.266c-0.896,0.308-1.979,0.455-3.245,0.455c-1.354,0-2.575-0.125-3.659-0.379
	s-2.188-0.629-3.311-1.127v-3.138h0.177c0.954,0.794,2.057,1.405,3.305,1.837c1.247,0.432,2.422,0.646,3.518,0.646
	c1.553,0,2.76-0.291,3.625-0.873c0.864-0.584,1.296-1.359,1.296-2.33c0-0.836-0.204-1.451-0.61-1.848
	c-0.409-0.397-1.03-0.703-1.866-0.924c-0.634-0.168-1.317-0.31-2.062-0.416c-0.734-0.109-1.521-0.25-2.348-0.418
	c-1.671-0.355-2.909-0.959-3.715-1.816c-0.811-0.854-1.209-1.969-1.209-3.344c0-1.576,0.666-2.869,2-3.877
	c1.334-1.011,3.022-1.515,5.076-1.515c1.32,0,2.539,0.126,3.646,0.379c1.105,0.255,2.085,0.563,2.938,0.938v2.963h-0.18
	c-0.719-0.608-1.658-1.113-2.83-1.516c-1.17-0.404-2.364-0.604-3.59-0.604c-1.343,0-2.421,0.276-3.233,0.837
	c-0.812,0.559-1.224,1.271-1.224,2.15c0,0.783,0.202,1.398,0.607,1.849c0.404,0.446,1.117,0.789,2.14,1.022
	c0.54,0.119,1.311,0.262,2.307,0.432c0.992,0.169,1.84,0.343,2.528,0.521c1.401,0.371,2.456,0.934,3.165,1.684
	C165.377,51.695,165.731,52.746,165.731,54.096z"/>
<path fill="#305096" d="M183.203,42.861h-6.735v16.615h-2.51V42.861h-6.732v-2.227h15.979L183.203,42.861L183.203,42.861z"/>
<path fill="#305096" d="M200.589,40.633l-6.862,18.842h-3.346l-6.862-18.842h2.673l5.923,16.588l5.921-16.588H200.589z"/>
<path fill="#305096" d="M215.846,59.476h-12.402V40.633h12.402v2.227h-9.896v5.17h9.896v2.23h-9.896v6.99h9.896V59.476z"/>
<path fill="#305096" d="M235.418,59.476h-3.251l-6.309-7.492h-3.521v7.492h-2.51V40.633h5.274c1.14,0,2.089,0.073,2.848,0.223
	c0.761,0.146,1.441,0.412,2.05,0.791c0.687,0.433,1.218,0.976,1.604,1.625c0.385,0.654,0.573,1.482,0.573,2.486
	c0,1.357-0.343,2.496-1.021,3.411c-0.687,0.914-1.623,1.604-2.819,2.067L235.418,59.476z M229.573,45.939
	c0-0.539-0.094-1.021-0.285-1.438c-0.188-0.416-0.504-0.771-0.94-1.057c-0.362-0.242-0.797-0.414-1.296-0.512
	c-0.494-0.1-1.084-0.146-1.761-0.146h-2.952v7.101h2.535c0.794,0,1.486-0.068,2.078-0.209c0.59-0.14,1.093-0.396,1.506-0.775
	c0.381-0.354,0.663-0.76,0.844-1.219C229.483,47.23,229.573,46.644,229.573,45.939z"/>
<path fill="#305096" d="M250.531,42.861h-6.735v16.615h-2.511V42.861h-6.734v-2.227h15.98V42.861L250.531,42.861z"/>
<path fill="#305096" d="M265.46,59.476h-12.4V40.633h12.399v2.227h-9.893v5.17h9.893v2.23h-9.893v6.99h9.893L265.46,59.476
	L265.46,59.476z"/>
<path fill="#305096" d="M276.083,59.476h-7.45v-1.934h2.472V42.564h-2.472v-1.93h7.45v1.93h-2.47v14.979h2.47V59.476z"/>
<path fill="#305096" d="M296.249,50.072c0,1.714-0.373,3.267-1.119,4.658c-0.745,1.394-1.734,2.472-2.976,3.238
	c-0.859,0.528-1.818,0.916-2.876,1.149c-1.061,0.233-2.449,0.354-4.177,0.354h-4.753V40.632h4.699c1.836,0,3.299,0.134,4.378,0.397
	c1.082,0.267,1.999,0.632,2.75,1.097c1.279,0.802,2.279,1.869,2.994,3.202C295.891,46.661,296.249,48.243,296.249,50.072z
	 M293.643,50.035c0-1.477-0.261-2.719-0.771-3.729c-0.515-1.014-1.28-1.811-2.301-2.393c-0.741-0.421-1.53-0.715-2.364-0.878
	c-0.835-0.165-1.833-0.247-2.996-0.247h-2.352V57.31h2.352c1.205,0,2.257-0.09,3.154-0.269c0.896-0.177,1.722-0.505,2.472-0.983
	c0.938-0.601,1.64-1.389,2.104-2.363C293.41,52.724,293.643,51.501,293.643,50.035z"/>
<path fill="#305096" d="M306.957,59.476h-7.45v-1.934h2.47V42.564h-2.47v-1.93h7.45v1.93h-2.47v14.979h2.47V59.476z"/>
<path fill="#305096" d="M326.929,58.083c-1.024,0.472-2.147,0.882-3.37,1.231c-1.22,0.351-2.396,0.522-3.533,0.522
	c-1.472,0-2.813-0.2-4.037-0.604c-1.227-0.404-2.268-1.012-3.124-1.82c-0.869-0.816-1.539-1.842-2.016-3.066
	c-0.473-1.229-0.709-2.664-0.709-4.308c0-3.013,0.884-5.388,2.642-7.128c1.759-1.742,4.173-2.612,7.245-2.612
	c1.066,0,2.165,0.128,3.278,0.388c1.118,0.256,2.322,0.692,3.612,1.312v2.976h-0.228c-0.266-0.203-0.646-0.472-1.143-0.802
	c-0.498-0.329-0.984-0.604-1.467-0.821c-0.583-0.266-1.243-0.48-1.98-0.654c-0.734-0.172-1.571-0.26-2.512-0.26
	c-2.104,0-3.772,0.678-5.005,2.029c-1.227,1.354-1.841,3.188-1.841,5.498c0,2.438,0.641,4.338,1.924,5.688
	c1.281,1.354,3.027,2.031,5.235,2.031c0.811,0,1.615-0.08,2.424-0.24c0.806-0.16,1.512-0.367,2.119-0.619v-4.618H319.4V50h7.528
	L326.929,58.083L326.929,58.083z"/>
<path fill="#305096" d="M345.488,51.908c0,1.365-0.149,2.558-0.448,3.572c-0.301,1.019-0.791,1.863-1.474,2.539
	c-0.649,0.642-1.409,1.106-2.278,1.401c-0.867,0.298-1.879,0.44-3.035,0.44c-1.18,0-2.208-0.153-3.085-0.467
	c-0.877-0.312-1.615-0.771-2.213-1.381c-0.688-0.691-1.174-1.527-1.474-2.506c-0.304-0.979-0.449-2.181-0.449-3.605v-11.27h2.51
	v11.395c0,1.021,0.069,1.826,0.209,2.416c0.139,0.595,0.371,1.127,0.7,1.605c0.371,0.549,0.875,0.961,1.51,1.24
	c0.635,0.277,1.399,0.416,2.292,0.416c0.9,0,1.667-0.137,2.298-0.41c0.632-0.273,1.142-0.689,1.521-1.246
	c0.328-0.48,0.562-1.029,0.697-1.65c0.143-0.619,0.212-1.389,0.212-2.307V40.633h2.511L345.488,51.908L345.488,51.908z"/>
<path fill="#305096" d="M364.641,59.476h-3.094l-8.932-16.855v16.855h-2.335V40.633h3.879l8.146,15.389V40.633h2.336V59.476
	L364.641,59.476z"/>
<path fill="#305096" d="M385.379,58.083c-1.028,0.472-2.151,0.882-3.37,1.231c-1.22,0.352-2.396,0.522-3.537,0.522
	c-1.467,0-2.812-0.2-4.037-0.604c-1.224-0.404-2.265-1.012-3.125-1.82c-0.865-0.816-1.535-1.842-2.011-3.066
	c-0.474-1.229-0.709-2.664-0.709-4.308c0-3.013,0.879-5.388,2.642-7.128c1.759-1.742,4.173-2.612,7.24-2.612
	c1.071,0,2.166,0.128,3.283,0.388c1.118,0.256,2.322,0.692,3.612,1.312v2.976h-0.229c-0.262-0.203-0.641-0.472-1.139-0.802
	c-0.498-0.329-0.987-0.604-1.468-0.821c-0.582-0.266-1.242-0.48-1.979-0.654c-0.734-0.172-1.574-0.26-2.512-0.26
	c-2.109,0-3.777,0.678-5.004,2.029c-1.229,1.354-1.843,3.188-1.843,5.498c0,2.438,0.642,4.338,1.924,5.688
	c1.281,1.354,3.028,2.031,5.235,2.031c0.812,0,1.614-0.08,2.425-0.24c0.806-0.16,1.512-0.367,2.118-0.619v-4.618h-5.052V50h7.531
	v8.083H385.379z"/>
<circle fill="#E2001A" cx="39.328" cy="29.204" r="5.896"/>
</svg>
