<?xml version="1.0" encoding="utf-8"?>
<!-- Generator: Adobe Illustrator 12.0.0, SVG Export Plug-In . SVG Version: 6.00 Build 51448)  -->
<!DOCTYPE svg PUBLIC "-//W3C//DTD SVG 1.1//EN" "http://www.w3.org/Graphics/SVG/1.1/DTD/svg11.dtd" [
	<!ENTITY ns_svg "http://www.w3.org/2000/svg">
	<!ENTITY ns_xlink "http://www.w3.org/1999/xlink">
]>
<svg  version="1.1" id="Ebene_1" xmlns="&ns_svg;" xmlns:xlink="&ns_xlink;" width="22" height="22" viewBox="-0.783 -0.839 22 22"
	 overflow="visible" enable-background="new -0.783 -0.839 22 22" xml:space="preserve">
<circle fill="#1466B7" cx="10.551" cy="10.551" r="10.551"/>
<path fill="#105FA0" d="M9.44,13.076c-0.712-1.698-4.317-4.971-2.968-6.35c1.793-1.831,6.427-0.177,10.768,0.034l3.865,3.555
	c0,0,0.518,7.903-8.421,10.526l-3.451-4.521C9.232,16.321,10.485,15.566,9.44,13.076z"/>
<path fill="none" stroke="#FFFFFF" stroke-width="0.3486" d="M17.622,7.141c-0.108-0.204-0.306-0.364-0.537-0.364H5.193
	c-0.231,0,0.175,0.206,0.067,0.41C5.152,7.391,5.544,7.617,5.673,7.808l0.31,0.985l8.372-0.02l-4.46,6.606l-0.363,0.533
	c-0.086,0.127-0.13,0.271-0.13,0.414c0,0.145,0.044,0.287,0.13,0.416l0.308,0.451c0.07,0.104,0.16,0.184,0.264,0.238
	c0.104,0.055,0.221,0.086,0.345,0.086v-0.002c0.072,0,0.141-0.01,0.206-0.027l0.003-0.002l0,0c0.049-0.012,0.096-0.031,0.14-0.055
	c0.104-0.055,0.194-0.137,0.265-0.238l0.351-0.518l6.175-8.91C17.717,7.576,17.73,7.345,17.622,7.141z"/>
<path fill="#FFFFFF" d="M16.006,5.042C15.899,4.838,15.7,4.719,15.47,4.719H3.577c-0.231,0-0.429,0.119-0.537,0.323
	C2.932,5.246,2.945,5.477,3.075,5.668L7.77,12.54l1.957,2.971l1.294-1.914l-4.713-6.88l8.982-0.002l0.683-1.046
	C16.102,5.477,16.114,5.246,16.006,5.042z"/>
<circle fill="#FFFFFF" cx="11.002" cy="10.612" r="0.836"/>
</svg>
